<svg xmlns="http://www.w3.org/2000/svg" viewBox="0 0 820 470" font-family="system-ui, sans-serif" role="img" aria-label="Every email trigger flows through one choke point that either dev-logs or sends via the Email Service; a separate cron backs up the database">
  <defs>
    <marker id="arrow" viewBox="0 0 10 10" refX="9" refY="5" markerWidth="7" markerHeight="7" orient="auto-start-reverse">
      <path d="M0,0 L10,5 L0,10 z" fill="#565B6B"/>
    </marker>
  </defs>
  <rect x="0" y="0" width="820" height="470" fill="#F7F5F0"/>
  <text x="30" y="40" font-size="22" font-weight="700" fill="#232630">Every email goes through one door</text>

  <!-- Triggers -->
  <text x="30" y="74" font-size="14" font-weight="600" fill="#565B6B">What sends mail</text>
  <rect x="30" y="84" width="250" height="44" rx="8" fill="#FFFFFF" stroke="#DDD9CF"/>
  <text x="155" y="111" font-size="13" fill="#232630" text-anchor="middle">Sign-in magic link</text>
  <rect x="30" y="136" width="250" height="44" rx="8" fill="#FFFFFF" stroke="#DDD9CF"/>
  <text x="155" y="163" font-size="13" fill="#232630" text-anchor="middle">Scheduling request + reminders</text>
  <rect x="30" y="188" width="250" height="44" rx="8" fill="#FFFFFF" stroke="#DDD9CF"/>
  <text x="155" y="215" font-size="13" fill="#232630" text-anchor="middle">Decline → notify leaders</text>
  <rect x="30" y="240" width="250" height="44" rx="8" fill="#FFFFFF" stroke="#DDD9CF"/>
  <text x="155" y="267" font-size="13" fill="#232630" text-anchor="middle">Application received / result</text>
  <rect x="30" y="292" width="250" height="44" rx="8" fill="#C29A5B"/>
  <text x="155" y="313" font-size="13" fill="#232630" text-anchor="middle">Cron: reminders · weekly digest</text>
  <text x="155" y="329" font-size="11" fill="#232630" text-anchor="middle">gated by email_rules toggles</text>

  <!-- Choke point -->
  <rect x="330" y="150" width="160" height="112" rx="8" fill="#31487A"/>
  <text x="410" y="192" font-size="17" font-weight="700" fill="#FFFFFF" text-anchor="middle">email.ts</text>
  <text x="410" y="214" font-size="14" fill="#FFFFFF" text-anchor="middle">sendEmail()</text>
  <text x="410" y="236" font-size="13" fill="#DDD9CF" text-anchor="middle">one choke point</text>
  <line x1="280" y1="106" x2="328" y2="168" stroke="#565B6B" stroke-width="2" marker-end="url(#arrow)"/>
  <line x1="280" y1="158" x2="328" y2="184" stroke="#565B6B" stroke-width="2" marker-end="url(#arrow)"/>
  <line x1="280" y1="210" x2="328" y2="206" stroke="#565B6B" stroke-width="2" marker-end="url(#arrow)"/>
  <line x1="280" y1="262" x2="328" y2="228" stroke="#565B6B" stroke-width="2" marker-end="url(#arrow)"/>
  <line x1="280" y1="314" x2="328" y2="250" stroke="#565B6B" stroke-width="2" marker-end="url(#arrow)"/>

  <!-- Branches -->
  <rect x="540" y="126" width="260" height="58" rx="8" fill="#FFFFFF" stroke="#DDD9CF"/>
  <text x="670" y="151" font-size="13" font-weight="600" fill="#232630" text-anchor="middle">Dev mode (EMAIL_DEV_LOG=1)</text>
  <text x="670" y="171" font-size="12" fill="#565B6B" text-anchor="middle">printed to console · logged as devlog</text>
  <rect x="540" y="200" width="260" height="58" rx="8" fill="#2F7A4D"/>
  <text x="670" y="225" font-size="13" font-weight="600" fill="#FFFFFF" text-anchor="middle">Live: Cloudflare Email Service</text>
  <text x="670" y="245" font-size="12" fill="#DDD9CF" text-anchor="middle">actually sent · logged sent / failed</text>
  <line x1="490" y1="182" x2="538" y2="155" stroke="#565B6B" stroke-width="2" marker-end="url(#arrow)"/>
  <line x1="490" y1="212" x2="538" y2="229" stroke="#565B6B" stroke-width="2" marker-end="url(#arrow)"/>

  <!-- Log -->
  <rect x="540" y="300" width="260" height="56" rx="8" fill="#FFFFFF" stroke="#DDD9CF"/>
  <text x="670" y="325" font-size="13" font-weight="600" fill="#232630" text-anchor="middle">email_log — the send history</text>
  <text x="670" y="345" font-size="12" fill="#565B6B" text-anchor="middle">read it in /admin › Email</text>
  <line x1="620" y1="184" x2="620" y2="298" stroke="#565B6B" stroke-width="2" marker-end="url(#arrow)"/>
  <line x1="720" y1="258" x2="720" y2="298" stroke="#565B6B" stroke-width="2" marker-end="url(#arrow)"/>

  <!-- Backup cron -->
  <rect x="30" y="384" width="250" height="52" rx="8" fill="#C29A5B"/>
  <text x="155" y="410" font-size="13" font-weight="600" fill="#232630" text-anchor="middle">Cron: nightly D1 → R2 backup</text>
  <text x="155" y="428" font-size="11" fill="#232630" text-anchor="middle">the third cron</text>
  <rect x="330" y="386" width="190" height="48" rx="8" fill="#FFFFFF" stroke="#DDD9CF"/>
  <text x="425" y="415" font-size="13" fill="#232630" text-anchor="middle">R2 backups/date.sql</text>
  <line x1="280" y1="410" x2="328" y2="410" stroke="#565B6B" stroke-width="2" marker-end="url(#arrow)"/>
  <text x="670" y="414" font-size="12" fill="#565B6B" text-anchor="middle">Backup sends no mail — it exports the database.</text>
</svg>
